<svg xmlns="http://www.w3.org/2000/svg" width="1000" height="560" viewBox="0 0 1000 560" role="img" aria-labelledby="title description">
  <title id="title">About Huzaifa Abdul Rehman</title>
  <desc id="description">Build log: who I am, my profile, and current status</desc>

  <rect x="1" y="1" width="998" height="558" rx="8" fill="#f2efe9" stroke="#ddd7c9" stroke-width="2"/>

  <!-- log header bar -->
  <rect x="1" y="1" width="998" height="46" rx="8" fill="#ffffff"/>
  <rect x="1" y="39" width="998" height="8" fill="#ffffff"/>
  <line x1="1" y1="47" x2="999" y2="47" stroke="#ddd7c9" stroke-width="1"/>
  <circle cx="34" cy="24" r="4" fill="#3d6b52"/>
  <circle cx="34" cy="24" r="9" fill="none" stroke="#e2ead9" stroke-width="6"/>
  <text x="54" y="29" fill="#5c574d" font-family="Consolas, 'Courier New', monospace" font-size="13" letter-spacing="0.3">about.md — huzaifa-abdul-rehman/profile</text>

  <!-- rail -->
  <line x1="46" y1="100" x2="46" y2="228" stroke="#ddd7c9" stroke-width="1"/>
  <line x1="46" y1="248" x2="46" y2="410" stroke="#ddd7c9" stroke-width="1"/>
  <line x1="46" y1="430" x2="46" y2="505" stroke="#ddd7c9" stroke-width="1"/>
  <circle cx="46" cy="94" r="5" fill="#c25a1e"/>
  <circle cx="46" cy="242" r="5" fill="#c25a1e"/>
  <circle cx="46" cy="424" r="5" fill="#c25a1e"/>

  <g font-family="Consolas, 'Courier New', monospace">
    <!-- entry 01 -->
    <text x="72" y="98" fill="#c25a1e" font-size="12" font-weight="700" letter-spacing="0.8">01 · WHO</text>
  </g>
  <g font-family="Segoe UI, Arial, sans-serif" font-weight="700" font-size="26" fill="#1b1a17">
    <text x="72" y="132">BS Computer Science student building</text>
    <text x="72" y="166"><tspan fill="#c25a1e">end-to-end products</tspan><tspan> that pair modern</tspan></text>
    <text x="72" y="200">web apps with practical machine-learning systems.</text>
  </g>

  <!-- entry 02 -->
  <text x="72" y="246" fill="#c25a1e" font-family="Consolas, 'Courier New', monospace" font-size="12" font-weight="700" letter-spacing="0.8">02 · PROFILE</text>

  <g font-family="Consolas, 'Courier New', monospace">
    <!-- row 1 -->
    <rect x="72" y="264" width="278" height="62" rx="4" fill="#ffffff" stroke="#ddd7c9"/>
    <text x="88" y="286" fill="#5c574d" font-size="10.5" letter-spacing="0.6">NAME</text>
    <text x="88" y="308" fill="#1b1a17" font-size="15" font-weight="700">Huzaifa Abdul Rehman</text>

    <rect x="362" y="264" width="278" height="62" rx="4" fill="#ffffff" stroke="#ddd7c9"/>
    <text x="378" y="286" fill="#5c574d" font-size="10.5" letter-spacing="0.6">ROLE</text>
    <text x="378" y="308" fill="#1b1a17" font-size="15" font-weight="700">Full-Stack AI Engineer</text>

    <rect x="652" y="264" width="278" height="62" rx="4" fill="#ffffff" stroke="#ddd7c9"/>
    <text x="668" y="286" fill="#5c574d" font-size="10.5" letter-spacing="0.6">EDUCATION</text>
    <text x="668" y="308" fill="#1b1a17" font-size="15" font-weight="700">BS CS · FAST NUCES, Karachi</text>

    <!-- row 2 -->
    <rect x="72" y="336" width="278" height="62" rx="4" fill="#ffffff" stroke="#ddd7c9"/>
    <text x="88" y="358" fill="#5c574d" font-size="10.5" letter-spacing="0.6">FOCUS</text>
    <text x="88" y="380" fill="#1b1a17" font-size="14" font-weight="700">Full-stack products · measurable AI</text>

    <rect x="362" y="336" width="278" height="62" rx="4" fill="#ffffff" stroke="#ddd7c9"/>
    <text x="378" y="358" fill="#5c574d" font-size="10.5" letter-spacing="0.6">OPEN TO</text>
    <text x="378" y="380" fill="#1b1a17" font-size="14" font-weight="700">Internships · junior full-stack roles</text>

    <rect x="652" y="336" width="278" height="62" rx="4" fill="#ffffff" stroke="#ddd7c9"/>
    <text x="668" y="358" fill="#5c574d" font-size="10.5" letter-spacing="0.6">PRINCIPLE</text>
    <text x="668" y="380" fill="#1b1a17" font-size="14" font-weight="700">Build, measure, test, iterate</text>
  </g>

  <!-- entry 03 -->
  <text x="72" y="428" fill="#c25a1e" font-family="Consolas, 'Courier New', monospace" font-size="12" font-weight="700" letter-spacing="0.8">03 · STATUS</text>
  <text x="72" y="459" fill="#5c574d" font-family="Segoe UI, Arial, sans-serif" font-size="16">Currently shipping a tested Playwright migration to Oppia and</text>
  <text x="72" y="484" fill="#5c574d" font-family="Segoe UI, Arial, sans-serif" font-size="16">exploring internship and junior engineering roles.</text>

  <rect x="72" y="504" width="330" height="34" rx="4" fill="#e2ead9" stroke="#3d6b52"/>
  <text x="90" y="526" fill="#c25a1e" font-family="Consolas, 'Courier New', monospace" font-size="14" font-weight="700">&gt;</text>
  <text x="106" y="526" fill="#3d6b52" font-family="Consolas, 'Courier New', monospace" font-size="13" font-weight="700">build → measure → test → iterate</text>
</svg>
