<svg xmlns="http://www.w3.org/2000/svg" viewBox="0 0 1000 550" role="img" aria-labelledby="t d"><title id="t">Selected engineering projects</title><desc id="d">Four selected full-stack and applied AI projects</desc>
<rect width="1000" height="550" fill="#f6fbfc"/><rect x="1" y="1" width="998" height="548" rx="5" fill="none" stroke="#c5dadd" stroke-width="2"/><g font-family="Consolas,'Courier New',monospace"><text x="48" y="54" fill="#007c83" font-size="15" font-weight="700">SELECTED ENGINEERING / 04 MODULES</text><line x1="48" y1="73" x2="952" y2="73" stroke="#c5dadd"/>
<g font-size="14"><rect x="48" y="102" width="438" height="180" fill="#ffffff" stroke="#c5dadd"/><text x="70" y="137" fill="#34720d">01</text><text x="110" y="137" fill="#11262b" font-size="19" font-weight="700">ELECTROLUX EMS</text><text x="70" y="176" fill="#52666b">Electricity distribution, billing, usage,</text><text x="70" y="200" fill="#52666b">authentication, and service requests.</text><text x="70" y="244" fill="#7c3aed">NEXT.JS / TYPESCRIPT / MYSQL / DRIZZLE</text>
<rect x="514" y="102" width="438" height="180" fill="#ffffff" stroke="#c5dadd"/><text x="536" y="137" fill="#34720d">02</text><text x="576" y="137" fill="#11262b" font-size="19" font-weight="700">DROWSINESS DETECTION</text><text x="536" y="176" fill="#52666b">Real-time eye-state detection with 97.30%</text><text x="536" y="200" fill="#52666b">reported accuracy on the MRL Eye dataset.</text><text x="536" y="244" fill="#7c3aed">TENSORFLOW / MEDIAPIPE / OPENCV</text>
<rect x="48" y="310" width="438" height="180" fill="#ffffff" stroke="#c5dadd"/><text x="70" y="345" fill="#34720d">03</text><text x="110" y="345" fill="#11262b" font-size="19" font-weight="700">DIJKSTRA + ML ROUTING</text><text x="70" y="384" fill="#52666b">Graph search with learned, traffic-aware</text><text x="70" y="408" fill="#52666b">route optimization on real road networks.</text><text x="70" y="452" fill="#7c3aed">PYTHON / NETWORKX / OSMNX / XGBOOST</text>
<rect x="514" y="310" width="438" height="180" fill="#ffffff" stroke="#c5dadd"/><text x="536" y="345" fill="#34720d">04</text><text x="576" y="345" fill="#11262b" font-size="19" font-weight="700">FAST ACADEMIC HUB</text><text x="536" y="384" fill="#52666b">Offline-capable attendance planning built</text><text x="536" y="408" fill="#52666b">around the real student workflow.</text><text x="536" y="452" fill="#7c3aed">REACT / VITE / TAILWIND / PWA</text></g></g></svg>

