<svg xmlns="http://www.w3.org/2000/svg" viewBox="0 0 1000 550" role="img" aria-labelledby="t d"><title id="t">Selected engineering projects</title><desc id="d">Four selected full-stack and applied AI projects</desc>
<rect width="1000" height="550" fill="#071014"/><rect x="1" y="1" width="998" height="548" rx="5" fill="none" stroke="#1f5862" stroke-width="2"/><g font-family="Consolas,'Courier New',monospace"><text x="48" y="54" fill="#22d3ee" font-size="15" font-weight="700">SELECTED ENGINEERING / 04 MODULES</text><line x1="48" y1="73" x2="952" y2="73" stroke="#1f5862"/>
<g font-size="14"><rect x="48" y="102" width="438" height="180" fill="#0c191e" stroke="#1f5862"/><text x="70" y="137" fill="#a3e635">01</text><text x="110" y="137" fill="#f8fafc" font-size="19" font-weight="700">ELECTROLUX EMS</text><text x="70" y="176" fill="#a8c0c8">Electricity distribution, billing, usage,</text><text x="70" y="200" fill="#a8c0c8">authentication, and service requests.</text><text x="70" y="244" fill="#c084fc">NEXT.JS / TYPESCRIPT / MYSQL / DRIZZLE</text>
<rect x="514" y="102" width="438" height="180" fill="#0c191e" stroke="#1f5862"/><text x="536" y="137" fill="#a3e635">02</text><text x="576" y="137" fill="#f8fafc" font-size="19" font-weight="700">DROWSINESS DETECTION</text><text x="536" y="176" fill="#a8c0c8">Real-time eye-state detection with 97.30%</text><text x="536" y="200" fill="#a8c0c8">reported accuracy on the MRL Eye dataset.</text><text x="536" y="244" fill="#c084fc">TENSORFLOW / MEDIAPIPE / OPENCV</text>
<rect x="48" y="310" width="438" height="180" fill="#0c191e" stroke="#1f5862"/><text x="70" y="345" fill="#a3e635">03</text><text x="110" y="345" fill="#f8fafc" font-size="19" font-weight="700">DIJKSTRA + ML ROUTING</text><text x="70" y="384" fill="#a8c0c8">Graph search with learned, traffic-aware</text><text x="70" y="408" fill="#a8c0c8">route optimization on real road networks.</text><text x="70" y="452" fill="#c084fc">PYTHON / NETWORKX / OSMNX / XGBOOST</text>
<rect x="514" y="310" width="438" height="180" fill="#0c191e" stroke="#1f5862"/><text x="536" y="345" fill="#a3e635">04</text><text x="576" y="345" fill="#f8fafc" font-size="19" font-weight="700">FAST ACADEMIC HUB</text><text x="536" y="384" fill="#a8c0c8">Offline-capable attendance planning built</text><text x="536" y="408" fill="#a8c0c8">around the real student workflow.</text><text x="536" y="452" fill="#c084fc">REACT / VITE / TAILWIND / PWA</text></g></g></svg>
