<svg xmlns="http://www.w3.org/2000/svg" viewBox="0 0 1000 450" role="img" aria-labelledby="title description">
  <title id="title">Huzaifa Abdul Rehman</title>
  <desc id="description">whoami: Huzaifa Abdul Rehman, Full-Stack AI Engineer</desc>

  <rect x="1" y="1" width="998" height="448" rx="8" fill="#f2efe9" stroke="#ddd7c9" stroke-width="2"/>

  <!-- log header bar -->
  <rect x="1" y="1" width="998" height="46" rx="8" fill="#ffffff"/>
  <rect x="1" y="39" width="998" height="8" fill="#ffffff"/>
  <line x1="1" y1="47" x2="999" y2="47" stroke="#ddd7c9" stroke-width="1"/>
  <circle cx="34" cy="24" r="4" fill="#3d6b52"/>
  <circle cx="34" cy="24" r="9" fill="none" stroke="#e2ead9" stroke-width="6"/>
  <text x="54" y="29" fill="#5c574d" font-family="Consolas, 'Courier New', monospace" font-size="13" letter-spacing="0.3">~/profile — session started</text>

  <g font-family="Consolas, 'Courier New', monospace">
    <text x="72" y="143" fill="#5c574d" font-size="20">$ whoami</text>
    <text x="72" y="228" fill="#1b1a17" font-size="62" font-weight="700" letter-spacing="-0.3">Huzaifa Abdul Rehman</text>
    <text x="72" y="292" fill="#c25a1e" font-size="28" font-weight="500">&gt; Full-Stack AI Engineer</text>
    <rect x="451" y="270" width="14" height="27" fill="#c25a1e"/>
  </g>

  <g font-family="Consolas, 'Courier New', monospace" font-size="16">
    <rect x="72" y="344" width="261" height="44" rx="4" fill="#ffffff" stroke="#ddd7c9"/>
    <text x="86" y="373" fill="#5c574d">FAST NUCES · BS CS</text>

    <rect x="343" y="344" width="194" height="44" rx="4" fill="#ffffff" stroke="#ddd7c9"/>
    <text x="357" y="373" fill="#5c574d">Karachi, Pakistan</text>

    <rect x="547" y="344" width="300" height="44" rx="4" fill="#e2ead9" stroke="#3d6b52"/>
    <text x="561" y="373" fill="#3d6b52">Oppia · contribution in review</text>

    <rect x="857" y="344" width="120" height="44" rx="4" fill="#e2ead9" stroke="#3d6b52"/>
    <text x="871" y="373" fill="#3d6b52">LinkedIn</text>
  </g>
</svg>
