<svg xmlns="http://www.w3.org/2000/svg" viewBox="0 0 1000 380" role="img" aria-labelledby="title description">
  <title id="title">Huzaifa Abdul Rehman</title>
  <desc id="description">whoami: Huzaifa Abdul Rehman, Full-Stack AI Engineer</desc>

  <rect x="1" y="1" width="998" height="378" rx="8" fill="#0b0d10" stroke="#2a2d31" stroke-width="2"/>

  <!-- log header bar -->
  <rect x="1" y="1" width="998" height="46" rx="8" fill="#0f1216"/>
  <rect x="1" y="39" width="998" height="8" fill="#0f1216"/>
  <line x1="1" y1="47" x2="999" y2="47" stroke="#2a2d31" stroke-width="1"/>
  <circle cx="34" cy="24" r="4" fill="#6fcf9e"/>
  <circle cx="34" cy="24" r="9" fill="none" stroke="#12261c" stroke-width="6"/>
  <text x="54" y="29" fill="#9a958a" font-family="Consolas, 'Courier New', monospace" font-size="13" letter-spacing="0.3">~/profile — session started</text>

  <g font-family="Consolas, 'Courier New', monospace">
    <text x="72" y="126" fill="#9a958a" font-size="18">$ whoami</text>
    <text x="72" y="198" fill="#e8e6e1" font-size="54" font-weight="700" letter-spacing="-0.3">Huzaifa Abdul Rehman</text>
    <text x="72" y="253" fill="#ff8a3d" font-size="24" font-weight="500">&gt; Full-Stack AI Engineer</text>
    <rect x="397" y="234" width="12" height="23" fill="#ff8a3d"/>
  </g>

  <g font-family="Consolas, 'Courier New', monospace" font-size="14">
    <rect x="72" y="296" width="241" height="40" rx="4" fill="#14171b" stroke="#2a2d31"/>
    <text x="86" y="322" fill="#9a958a">FAST NUCES · BS CS</text>

    <rect x="323" y="296" width="174" height="40" rx="4" fill="#14171b" stroke="#2a2d31"/>
    <text x="337" y="322" fill="#9a958a">Karachi, Pakistan</text>

    <rect x="507" y="296" width="264" height="40" rx="4" fill="#12261c" stroke="#6fcf9e"/>
    <text x="521" y="322" fill="#6fcf9e">Oppia · contribution in review</text>

    <rect x="781" y="296" width="112" height="40" rx="4" fill="#12261c" stroke="#6fcf9e"/>
    <text x="795" y="322" fill="#6fcf9e">LinkedIn</text>
  </g>
</svg>
