<svg xmlns="http://www.w3.org/2000/svg" width="1200" height="300" viewBox="0 0 1200 300" role="img" aria-labelledby="title desc">
  <title id="title">Huzaifa Abdul Rehman</title>
  <desc id="desc">Computer science student building full-stack products and applied AI systems.</desc>
  <rect width="1200" height="300" fill="#0d1117"/>
  <g stroke="#30363d" stroke-width="1" opacity="0.65">
    <path d="M0 60H1200M0 120H1200M0 180H1200M0 240H1200"/>
    <path d="M80 0V300M160 0V300M240 0V300M320 0V300M400 0V300M480 0V300M560 0V300M640 0V300M720 0V300M800 0V300M880 0V300M960 0V300M1040 0V300M1120 0V300"/>
  </g>
  <rect x="72" y="54" width="12" height="192" fill="#3fb950"/>
  <rect x="96" y="54" width="5" height="192" fill="#d29922"/>
  <g font-family="Segoe UI, Arial, sans-serif" fill="#f0f6fc">
    <text x="138" y="126" font-size="52" font-weight="700">Huzaifa Abdul Rehman</text>
    <text x="140" y="174" font-size="24" fill="#8b949e">Full-Stack AI Engineer · Computer Science</text>
  </g>
  <g font-family="Consolas, Menlo, monospace" font-size="17">
    <rect x="140" y="205" width="476" height="38" rx="4" fill="#161b22" stroke="#30363d"/>
    <text x="158" y="230" fill="#3fb950">$</text>
    <text x="182" y="230" fill="#c9d1d9">build --learn --contribute</text>
    <rect x="1080" y="54" width="48" height="12" fill="#58a6ff"/>
    <rect x="1032" y="78" width="96" height="12" fill="#d29922"/>
    <rect x="1056" y="102" width="72" height="12" fill="#3fb950"/>
  </g>
</svg>
