<svg xmlns="http://www.w3.org/2000/svg" viewBox="0 0 1000 450" role="img" aria-labelledby="title description">
  <title id="title">Huzaifa Abdul Rehman</title>
  <desc id="description">whoami: Huzaifa Abdul Rehman, Full-Stack AI Engineer</desc>

  <rect x="1" y="1" width="998" height="448" rx="8" fill="#0b0d10" stroke="#2a2d31" stroke-width="2"/>

  <!-- log header bar -->
  <rect x="1" y="1" width="998" height="46" rx="8" fill="#0f1216"/>
  <rect x="1" y="39" width="998" height="8" fill="#0f1216"/>
  <line x1="1" y1="47" x2="999" y2="47" stroke="#2a2d31" stroke-width="1"/>
  <circle cx="34" cy="24" r="4" fill="#6fcf9e"/>
  <circle cx="34" cy="24" r="9" fill="none" stroke="#12261c" stroke-width="6"/>
  <text x="54" y="29" fill="#9a958a" font-family="Consolas, 'Courier New', monospace" font-size="13" letter-spacing="0.3">~/profile — session started</text>

  <g font-family="Consolas, 'Courier New', monospace">
    <text x="72" y="143" fill="#9a958a" font-size="20">$ whoami</text>
    <text x="72" y="228" fill="#e8e6e1" font-size="62" font-weight="700" letter-spacing="-0.3">Huzaifa Abdul Rehman</text>
    <text x="72" y="292" fill="#ff8a3d" font-size="28" font-weight="500">&gt; Full-Stack AI Engineer</text>
    <rect x="451" y="270" width="14" height="27" fill="#ff8a3d"/>
  </g>

  <g font-family="Consolas, 'Courier New', monospace" font-size="16">
    <rect x="72" y="344" width="261" height="44" rx="4" fill="#14171b" stroke="#2a2d31"/>
    <text x="86" y="373" fill="#9a958a">FAST NUCES · BS CS</text>

    <rect x="343" y="344" width="194" height="44" rx="4" fill="#14171b" stroke="#2a2d31"/>
    <text x="357" y="373" fill="#9a958a">Karachi, Pakistan</text>

    <rect x="547" y="344" width="300" height="44" rx="4" fill="#12261c" stroke="#6fcf9e"/>
    <text x="561" y="373" fill="#6fcf9e">Oppia · contribution in review</text>

    <rect x="857" y="344" width="120" height="44" rx="4" fill="#12261c" stroke="#6fcf9e"/>
    <text x="871" y="373" fill="#6fcf9e">LinkedIn</text>
  </g>
</svg>
