<svg xmlns="http://www.w3.org/2000/svg" viewBox="0 0 1000 320" role="img" aria-labelledby="title description">
  <title id="title">Huzaifa Abdul Rehman</title>
  <desc id="description">whoami: Huzaifa Abdul Rehman, Full-Stack AI Engineer</desc>

  <rect x="1" y="1" width="998" height="318" rx="8" fill="#0b0d10" stroke="#2a2d31" stroke-width="2"/>

  <!-- log header bar -->
  <rect x="1" y="1" width="998" height="46" rx="8" fill="#0f1216"/>
  <rect x="1" y="39" width="998" height="8" fill="#0f1216"/>
  <line x1="1" y1="47" x2="999" y2="47" stroke="#2a2d31" stroke-width="1"/>
  <circle cx="34" cy="24" r="4" fill="#6fcf9e"/>
  <circle cx="34" cy="24" r="9" fill="none" stroke="#12261c" stroke-width="6"/>
  <text x="54" y="29" fill="#9a958a" font-family="Consolas, 'Courier New', monospace" font-size="13" letter-spacing="0.3">~/profile — session started</text>

  <g font-family="Consolas, 'Courier New', monospace">
    <text x="72" y="112" fill="#9a958a" font-size="16">$ whoami</text>
    <text x="72" y="172" fill="#e8e6e1" font-size="46" font-weight="700" letter-spacing="-0.3">Huzaifa Abdul Rehman</text>
    <text x="72" y="219" fill="#ff8a3d" font-size="21" font-weight="500">&gt; Full-Stack AI Engineer</text>
    <rect x="356" y="203" width="11" height="20" fill="#ff8a3d"/>
  </g>

  <g font-family="Consolas, 'Courier New', monospace" font-size="12">
    <rect x="72" y="252" width="221" height="32" rx="4" fill="#14171b" stroke="#2a2d31"/>
    <text x="84" y="273" fill="#9a958a">FAST NUCES · BS CS</text>

    <rect x="301" y="252" width="150" height="32" rx="4" fill="#14171b" stroke="#2a2d31"/>
    <text x="313" y="273" fill="#9a958a">Karachi, Pakistan</text>

    <rect x="459" y="252" width="224" height="32" rx="4" fill="#12261c" stroke="#6fcf9e"/>
    <text x="471" y="273" fill="#6fcf9e">Oppia · contribution in review</text>

    <rect x="691" y="252" width="90" height="32" rx="4" fill="#12261c" stroke="#6fcf9e"/>
    <text x="703" y="273" fill="#6fcf9e">LinkedIn</text>
  </g>
</svg>
