<svg xmlns="http://www.w3.org/2000/svg" viewBox="0 0 1000 430" role="img" aria-labelledby="t d"><title id="t">Technology system map</title><desc id="d">Connected tools across interface, services, data, intelligence, and verification</desc>
<g font-family="Consolas,'Courier New',monospace"><text x="24" y="35" fill="#007c83" font-size="16" font-weight="700">SYSTEM TOOLCHAIN / 05 LAYERS</text><line x1="24" y1="58" x2="976" y2="58" stroke="#8bb9c0"/>
<line x1="105" y1="120" x2="895" y2="120" stroke="#8bb9c0" stroke-width="3"/><g font-size="15" font-weight="700"><circle cx="105" cy="120" r="8" fill="#007c83"/><text x="105" y="91" text-anchor="middle" fill="#007c83">INTERFACE</text><circle cx="302" cy="120" r="8" fill="#007c83"/><text x="302" y="91" text-anchor="middle" fill="#007c83">APPLICATION</text><circle cx="500" cy="120" r="8" fill="#34720d"/><text x="500" y="91" text-anchor="middle" fill="#34720d">DATA</text><circle cx="698" cy="120" r="8" fill="#7c3aed"/><text x="698" y="91" text-anchor="middle" fill="#7c3aed">INTELLIGENCE</text><circle cx="895" cy="120" r="8" fill="#11262b"/><text x="895" y="91" text-anchor="middle" fill="#11262b">VERIFY</text></g>
<g font-size="15"><rect x="28" y="162" width="154" height="72" fill="#eef7f8" stroke="#8bb9c0"/><text x="105" y="191" text-anchor="middle" fill="#11262b">React / Next.js</text><text x="105" y="216" text-anchor="middle" fill="#52666b">TypeScript / UI</text>
<rect x="225" y="162" width="154" height="72" fill="#eef7f8" stroke="#8bb9c0"/><text x="302" y="191" text-anchor="middle" fill="#11262b">Node.js / Python</text><text x="302" y="216" text-anchor="middle" fill="#52666b">APIs / PWA</text>
<rect x="423" y="162" width="154" height="72" fill="#eef7f8" stroke="#8bb9c0"/><text x="500" y="191" text-anchor="middle" fill="#11262b">MySQL / Drizzle</text><text x="500" y="216" text-anchor="middle" fill="#52666b">NetworkX / OSMnx</text>
<rect x="621" y="162" width="154" height="72" fill="#eef7f8" stroke="#b7a0d0"/><text x="698" y="191" text-anchor="middle" fill="#11262b">TensorFlow / CV</text><text x="698" y="216" text-anchor="middle" fill="#52666b">MediaPipe / XGBoost</text>
<rect x="818" y="162" width="154" height="72" fill="#eef7f8" stroke="#8bb9c0"/><text x="895" y="191" text-anchor="middle" fill="#11262b">Git / Playwright</text><text x="895" y="216" text-anchor="middle" fill="#52666b">Testing / Actions</text></g>
<path d="M105 252V292H895V252" fill="none" stroke="#8bb9c0" stroke-dasharray="5 6"/><text x="500" y="324" text-anchor="middle" fill="#34720d" font-size="16" font-weight="700">DELIVERY LOOP / BUILD -&gt; INTEGRATE -&gt; EVALUATE -&gt; VERIFY</text>
<g font-size="16"><text x="24" y="375" fill="#007c83">CORE</text><text x="82" y="375" fill="#11262b">JavaScript / TypeScript / Python / SQL</text><text x="500" y="375" fill="#7c3aed">EXTENDED</text><text x="585" y="375" fill="#52666b">Streamlit / C / C++ / OpenCV</text><text x="24" y="407" fill="#52666b">Tools are selected for the system being built, not for the badge count.</text></g></g></svg>
