<svg xmlns="http://www.w3.org/2000/svg" viewBox="0 0 1000 430" role="img" aria-labelledby="t d"><title id="t">Technology system map</title><desc id="d">Connected tools across interface, services, data, intelligence, and verification</desc>
<g font-family="Consolas,'Courier New',monospace"><text x="24" y="35" fill="#22d3ee" font-size="13" font-weight="700">SYSTEM TOOLCHAIN / 05 LAYERS</text><line x1="24" y1="58" x2="976" y2="58" stroke="#1f5862"/>
<line x1="105" y1="120" x2="895" y2="120" stroke="#1f5862" stroke-width="3"/><g font-size="12" font-weight="700"><circle cx="105" cy="120" r="8" fill="#22d3ee"/><text x="105" y="91" text-anchor="middle" fill="#22d3ee">INTERFACE</text><circle cx="302" cy="120" r="8" fill="#22d3ee"/><text x="302" y="91" text-anchor="middle" fill="#22d3ee">APPLICATION</text><circle cx="500" cy="120" r="8" fill="#a3e635"/><text x="500" y="91" text-anchor="middle" fill="#a3e635">DATA</text><circle cx="698" cy="120" r="8" fill="#c084fc"/><text x="698" y="91" text-anchor="middle" fill="#c084fc">INTELLIGENCE</text><circle cx="895" cy="120" r="8" fill="#f8fafc"/><text x="895" y="91" text-anchor="middle" fill="#f8fafc">VERIFY</text></g>
<g font-size="14"><rect x="28" y="162" width="154" height="72" fill="#0c191e" stroke="#1f5862"/><text x="105" y="191" text-anchor="middle" fill="#f8fafc">React / Next.js</text><text x="105" y="216" text-anchor="middle" fill="#a8c0c8">TypeScript / UI</text>
<rect x="225" y="162" width="154" height="72" fill="#0c191e" stroke="#1f5862"/><text x="302" y="191" text-anchor="middle" fill="#f8fafc">Node.js / Python</text><text x="302" y="216" text-anchor="middle" fill="#a8c0c8">APIs / PWA</text>
<rect x="423" y="162" width="154" height="72" fill="#0c191e" stroke="#1f5862"/><text x="500" y="191" text-anchor="middle" fill="#f8fafc">MySQL / Drizzle</text><text x="500" y="216" text-anchor="middle" fill="#a8c0c8">NetworkX / OSMnx</text>
<rect x="621" y="162" width="154" height="72" fill="#0c191e" stroke="#503c62"/><text x="698" y="191" text-anchor="middle" fill="#f8fafc">TensorFlow / CV</text><text x="698" y="216" text-anchor="middle" fill="#a8c0c8">MediaPipe / XGBoost</text>
<rect x="818" y="162" width="154" height="72" fill="#0c191e" stroke="#1f5862"/><text x="895" y="191" text-anchor="middle" fill="#f8fafc">Git / Playwright</text><text x="895" y="216" text-anchor="middle" fill="#a8c0c8">Testing / Actions</text></g>
<path d="M105 252V292H895V252" fill="none" stroke="#1f5862" stroke-dasharray="5 6"/><text x="500" y="324" text-anchor="middle" fill="#a3e635" font-size="13" font-weight="700">DELIVERY LOOP / BUILD -&gt; INTEGRATE -&gt; EVALUATE -&gt; VERIFY</text>
<g font-size="13"><text x="24" y="375" fill="#22d3ee">CORE</text><text x="82" y="375" fill="#f8fafc">JavaScript / TypeScript / Python / SQL</text><text x="500" y="375" fill="#c084fc">EXTENDED</text><text x="585" y="375" fill="#a8c0c8">Streamlit / C / C++ / OpenCV</text><text x="24" y="407" fill="#a8c0c8">Tools are selected for the system being built, not for the badge count.</text></g></g></svg>
