<svg xmlns="http://www.w3.org/2000/svg" viewBox="0 0 1000 400" role="img" aria-labelledby="title description">
  <title id="title">Technology toolkit</title>
  <desc id="description">Web, artificial intelligence, data, and engineering technologies</desc>

  <rect x="1" y="1" width="998" height="398" rx="8" fill="#0b0d10" stroke="#2a2d31" stroke-width="2"/>

  <rect x="1" y="1" width="998" height="46" rx="8" fill="#0f1216"/>
  <rect x="1" y="39" width="998" height="8" fill="#0f1216"/>
  <line x1="1" y1="47" x2="999" y2="47" stroke="#2a2d31" stroke-width="1"/>
  <circle cx="34" cy="24" r="4" fill="#6fcf9e"/>
  <circle cx="34" cy="24" r="9" fill="none" stroke="#12261c" stroke-width="6"/>
  <text x="54" y="30" fill="#9a958a" font-family="Consolas, 'Courier New', monospace" font-size="15" letter-spacing="0.3">stack.md — huzaifa-abdul-rehman/profile</text>

  <text x="48" y="101" fill="#e8e6e1" font-family="Consolas, 'Courier New', monospace" font-size="30" font-weight="700">Technology toolkit</text>
  <text x="48" y="134" fill="#9a958a" font-family="Segoe UI, Arial, sans-serif" font-size="18">Tools I use to move from product interface to tested implementation.</text>

  <g font-family="Consolas, 'Courier New', monospace">
    <text x="48" y="184" fill="#ff8a3d" font-size="15" font-weight="700" letter-spacing="0.6">WEB</text>
    <!-- chips row 1 -->
    <g font-size="15">
      <rect x="48" y="196" width="66" height="34" rx="4" fill="#14171b" stroke="#2a2d31"/><text x="60" y="218" fill="#e8e6e1">React</text>
      <rect x="122" y="196" width="82" height="34" rx="4" fill="#14171b" stroke="#2a2d31"/><text x="134" y="218" fill="#e8e6e1">Next.js</text>
      <rect x="212" y="196" width="102" height="34" rx="4" fill="#14171b" stroke="#2a2d31"/><text x="224" y="218" fill="#e8e6e1">TypeScript</text>
      <rect x="322" y="196" width="122" height="34" rx="4" fill="#14171b" stroke="#2a2d31"/><text x="334" y="218" fill="#e8e6e1">Tailwind CSS</text>
    </g>

    <text x="48" y="286" fill="#ff8a3d" font-size="15" font-weight="700" letter-spacing="0.6">AI &amp; COMPUTER VISION</text>
    <g font-size="15">
      <rect x="48" y="298" width="80" height="34" rx="4" fill="#14171b" stroke="#2a2d31"/><text x="60" y="320" fill="#e8e6e1">Python</text>
      <rect x="136" y="298" width="114" height="34" rx="4" fill="#14171b" stroke="#2a2d31"/><text x="148" y="320" fill="#e8e6e1">TensorFlow</text>
      <rect x="258" y="298" width="88" height="34" rx="4" fill="#14171b" stroke="#2a2d31"/><text x="270" y="320" fill="#e8e6e1">OpenCV</text>
      <rect x="354" y="298" width="106" height="34" rx="4" fill="#14171b" stroke="#2a2d31"/><text x="366" y="320" fill="#e8e6e1">MediaPipe</text>
      <rect x="468" y="298" width="94" height="34" rx="4" fill="#14171b" stroke="#2a2d31"/><text x="480" y="320" fill="#e8e6e1">XGBoost</text>
    </g>

    <text x="590" y="184" fill="#6fcf9e" font-size="15" font-weight="700" letter-spacing="0.6">DATA &amp; ENGINEERING</text>
    <g font-size="15">
      <rect x="590" y="196" width="80" height="34" rx="4" fill="#14171b" stroke="#2a2d31"/><text x="602" y="218" fill="#e8e6e1">MySQL</text>
      <rect x="678" y="196" width="116" height="34" rx="4" fill="#14171b" stroke="#2a2d31"/><text x="690" y="218" fill="#e8e6e1">Drizzle ORM</text>
      <rect x="802" y="196" width="58" height="34" rx="4" fill="#14171b" stroke="#2a2d31"/><text x="814" y="218" fill="#e8e6e1">Git</text>
      <rect x="868" y="196" width="124" height="34" rx="4" fill="#14171b" stroke="#2a2d31"/><text x="880" y="218" fill="#e8e6e1">GitHub Actions</text>
    </g>

    <text x="590" y="286" fill="#6fcf9e" font-size="15" font-weight="700" letter-spacing="0.6">ALSO WORKED WITH</text>
    <g font-size="15">
      <rect x="590" y="298" width="104" height="34" rx="4" fill="#14171b" stroke="#2a2d31"/><text x="602" y="320" fill="#e8e6e1">NetworkX</text>
      <rect x="702" y="298" width="100" height="34" rx="4" fill="#14171b" stroke="#2a2d31"/><text x="714" y="320" fill="#e8e6e1">Streamlit</text>
      <rect x="810" y="298" width="50" height="34" rx="4" fill="#14171b" stroke="#2a2d31"/><text x="822" y="320" fill="#e8e6e1">C</text>
      <rect x="868" y="298" width="64" height="34" rx="4" fill="#14171b" stroke="#2a2d31"/><text x="880" y="320" fill="#e8e6e1">C++</text>
    </g>
  </g>
</svg>
