<svg xmlns="http://www.w3.org/2000/svg" width="1000" height="330" viewBox="0 0 1000 330" role="img" aria-labelledby="title description">
  <title id="title">Technology toolkit</title>
  <desc id="description">Web, artificial intelligence, data, and engineering technologies</desc>

  <rect x="1" y="1" width="998" height="328" rx="8" fill="#0b0d10" stroke="#2a2d31" stroke-width="2"/>

  <rect x="1" y="1" width="998" height="46" rx="8" fill="#0f1216"/>
  <rect x="1" y="39" width="998" height="8" fill="#0f1216"/>
  <line x1="1" y1="47" x2="999" y2="47" stroke="#2a2d31" stroke-width="1"/>
  <circle cx="34" cy="24" r="4" fill="#6fcf9e"/>
  <circle cx="34" cy="24" r="9" fill="none" stroke="#12261c" stroke-width="6"/>
  <text x="54" y="29" fill="#9a958a" font-family="Consolas, 'Courier New', monospace" font-size="13" letter-spacing="0.3">stack.md — huzaifa-abdul-rehman/profile</text>

  <text x="48" y="93" fill="#e8e6e1" font-family="Consolas, 'Courier New', monospace" font-size="21" font-weight="700">Technology toolkit</text>
  <text x="48" y="118" fill="#9a958a" font-family="Segoe UI, Arial, sans-serif" font-size="14.5">Tools I use to move from product interface to tested implementation.</text>

  <g font-family="Consolas, 'Courier New', monospace">
    <text x="48" y="156" fill="#ff8a3d" font-size="11.5" font-weight="700" letter-spacing="0.6">WEB</text>
    <!-- chips row 1 -->
    <g font-size="13.5">
      <rect x="48" y="166" width="58" height="26" rx="4" fill="#14171b" stroke="#2a2d31"/><text x="60" y="183" fill="#e8e6e1">React</text>
      <rect x="112" y="166" width="72" height="26" rx="4" fill="#14171b" stroke="#2a2d31"/><text x="124" y="183" fill="#e8e6e1">Next.js</text>
      <rect x="190" y="166" width="90" height="26" rx="4" fill="#14171b" stroke="#2a2d31"/><text x="202" y="183" fill="#e8e6e1">TypeScript</text>
      <rect x="286" y="166" width="104" height="26" rx="4" fill="#14171b" stroke="#2a2d31"/><text x="298" y="183" fill="#e8e6e1">Tailwind CSS</text>
    </g>

    <text x="48" y="228" fill="#ff8a3d" font-size="11.5" font-weight="700" letter-spacing="0.6">AI &amp; COMPUTER VISION</text>
    <g font-size="13.5">
      <rect x="48" y="238" width="70" height="26" rx="4" fill="#14171b" stroke="#2a2d31"/><text x="60" y="255" fill="#e8e6e1">Python</text>
      <rect x="124" y="238" width="98" height="26" rx="4" fill="#14171b" stroke="#2a2d31"/><text x="136" y="255" fill="#e8e6e1">TensorFlow</text>
      <rect x="228" y="238" width="80" height="26" rx="4" fill="#14171b" stroke="#2a2d31"/><text x="240" y="255" fill="#e8e6e1">OpenCV</text>
      <rect x="314" y="238" width="94" height="26" rx="4" fill="#14171b" stroke="#2a2d31"/><text x="326" y="255" fill="#e8e6e1">MediaPipe</text>
      <rect x="414" y="238" width="86" height="26" rx="4" fill="#14171b" stroke="#2a2d31"/><text x="426" y="255" fill="#e8e6e1">XGBoost</text>
    </g>

    <text x="530" y="156" fill="#6fcf9e" font-size="11.5" font-weight="700" letter-spacing="0.6">DATA &amp; ENGINEERING</text>
    <g font-size="13.5">
      <rect x="530" y="166" width="72" height="26" rx="4" fill="#14171b" stroke="#2a2d31"/><text x="542" y="183" fill="#e8e6e1">MySQL</text>
      <rect x="608" y="166" width="104" height="26" rx="4" fill="#14171b" stroke="#2a2d31"/><text x="620" y="183" fill="#e8e6e1">Drizzle ORM</text>
      <rect x="718" y="166" width="52" height="26" rx="4" fill="#14171b" stroke="#2a2d31"/><text x="730" y="183" fill="#e8e6e1">Git</text>
      <rect x="776" y="166" width="130" height="26" rx="4" fill="#14171b" stroke="#2a2d31"/><text x="788" y="183" fill="#e8e6e1">GitHub Actions</text>
    </g>

    <text x="530" y="228" fill="#6fcf9e" font-size="11.5" font-weight="700" letter-spacing="0.6">ALSO WORKED WITH</text>
    <g font-size="13.5">
      <rect x="530" y="238" width="92" height="26" rx="4" fill="#14171b" stroke="#2a2d31"/><text x="542" y="255" fill="#e8e6e1">NetworkX</text>
      <rect x="628" y="238" width="90" height="26" rx="4" fill="#14171b" stroke="#2a2d31"/><text x="640" y="255" fill="#e8e6e1">Streamlit</text>
      <rect x="724" y="238" width="46" height="26" rx="4" fill="#14171b" stroke="#2a2d31"/><text x="736" y="255" fill="#e8e6e1">C</text>
      <rect x="776" y="238" width="58" height="26" rx="4" fill="#14171b" stroke="#2a2d31"/><text x="788" y="255" fill="#e8e6e1">C++</text>
    </g>
  </g>
</svg>
